<svg width="24" height="24" viewBox="0 0 24 24" fill="none" xmlns="http://www.w3.org/2000/svg">
<path d="M5.975 14.9625H22.5437C22.9126 14.9625 23.2187 14.6774 23.245 14.3094L23.9982 3.7657C24.0121 3.57102 23.9445 3.37931 23.8115 3.23648C23.6784 3.0936 23.4921 3.01251 23.2969 3.01251H16.3687V6.13021C16.4184 6.12674 16.4684 6.125 16.5187 6.125C17.0822 6.125 17.6118 6.34443 18.0103 6.74282C18.4086 7.14125 18.6281 7.67099 18.6281 8.23438C18.6281 8.79786 18.4086 9.32755 18.0102 9.72593L15.7509 11.9853C15.3524 12.3836 14.8227 12.6031 14.2593 12.6031C13.6958 12.6031 13.1661 12.3836 12.7677 11.9853L10.5085 9.72593C10.1101 9.32755 9.89061 8.79781 9.89061 8.23438C9.89061 7.67094 10.1101 7.14121 10.5085 6.74282C10.9069 6.34447 11.4366 6.125 12 6.125C12.0502 6.125 12.1003 6.12674 12.1499 6.13021V3.01251H5.74335L5.54596 0.644718C5.51558 0.280312 5.21099 0 4.84527 0H0.703124C0.314812 0 0 0.314859 0 0.703124C0 1.09144 0.314812 1.40625 0.703124 1.40625H4.1983L4.40423 3.87655L5.21896 13.6544C3.95048 13.9894 3.01251 15.1464 3.01251 16.5187C3.01251 18.1523 4.34146 19.4812 5.975 19.4812H6.09172C5.81113 19.9338 5.64861 20.4669 5.64861 21.0375C5.64861 22.671 6.97761 24 8.61106 24C10.2446 24 11.5735 22.671 11.5735 21.0375C11.5735 20.4669 11.411 19.9338 11.1304 19.4812H17.7649C17.4843 19.9338 17.3218 20.4669 17.3218 21.0375C17.3218 22.671 18.6508 24 20.2843 24C21.9179 24 23.2468 22.671 23.2468 21.0375C23.2468 20.4496 23.0739 19.9017 22.7775 19.4406C23.0507 19.3441 23.2468 19.0843 23.2468 18.7781C23.2468 18.3898 22.932 18.075 22.5437 18.075H5.975C5.11687 18.075 4.41876 17.3769 4.41876 16.5187C4.41876 15.6606 5.11687 14.9625 5.975 14.9625ZM20.2843 19.4812C21.1424 19.4812 21.8406 20.1794 21.8406 21.0375C21.8406 21.8956 21.1424 22.5937 20.2843 22.5937C19.4261 22.5937 18.7281 21.8956 18.7281 21.0375C18.7281 20.1794 19.4262 19.4812 20.2843 19.4812ZM8.61106 19.4812C9.4692 19.4812 10.1673 20.1794 10.1673 21.0375C10.1673 21.8956 9.46915 22.5937 8.61106 22.5937C7.75292 22.5937 7.05486 21.8956 7.05486 21.0375C7.05486 20.1794 7.75292 19.4812 8.61106 19.4812Z" fill="#833F1D"/>
</svg>
