<svg width="24" height="24" viewBox="0 0 24 24" fill="none" xmlns="http://www.w3.org/2000/svg">
<path d="M0.532828 9.91191L3.28575 9.23489C3.45122 8.71303 3.66408 8.20697 3.92091 7.72289C3.50756 7.03486 2.63892 5.58675 2.63892 5.58675C2.47275 5.31005 2.51672 4.95572 2.74467 4.72777L4.7332 2.73923C4.96116 2.51058 5.31478 2.46666 5.59219 2.63348L7.7318 3.91547C8.21316 3.6607 8.71645 3.44991 9.23484 3.2858L9.91186 0.532875C9.99019 0.21975 10.271 0 10.5938 0H13.4062C13.729 0 14.0105 0.21975 14.0881 0.532828C14.0881 0.532828 14.5571 2.45423 14.7645 3.28509C15.3172 3.46017 15.8514 3.68747 16.3602 3.96487L18.5788 2.63348C18.8562 2.46867 19.2091 2.51128 19.4377 2.73923L21.4263 4.72777C21.6542 4.95572 21.6982 5.31005 21.532 5.58675L20.1601 7.87809C20.3812 8.31412 20.5666 8.76797 20.7142 9.23283L23.4671 9.91191C23.7802 9.99019 24 10.271 24 10.5938V13.4062C24 13.729 23.7803 14.0105 23.4672 14.0881L20.7135 14.7651C20.5467 15.2945 20.3297 15.8088 20.0667 16.3025L21.2944 18.3487C21.4606 18.6254 21.4166 18.9797 21.1887 19.2077L19.2001 21.1962C18.9728 21.4235 18.6186 21.4667 18.3412 21.302C18.3412 21.302 16.9644 20.4766 16.2901 20.0729C15.8019 20.3331 15.2911 20.548 14.7644 20.7149L14.088 23.4671C14.0105 23.7803 13.729 24 13.4062 24H10.5938C10.271 24 9.99019 23.7802 9.91191 23.4672L9.23555 20.7149C8.69377 20.5432 8.17195 20.3214 7.6755 20.0523C6.98269 20.4677 5.59223 21.302 5.59223 21.302C5.31553 21.4674 4.9612 21.4249 4.73325 21.1962L2.74472 19.2077C2.51676 18.9797 2.4728 18.6254 2.63897 18.3487L3.90309 16.2427C3.65386 15.7696 3.44714 15.2746 3.2858 14.7651L0.532876 14.0881C0.219704 14.0098 0 13.729 0 13.4062V10.5938C0 10.271 0.219703 9.99019 0.532828 9.91191ZM12 16.9219C14.7136 16.9219 16.9219 14.7136 16.9219 12C16.9219 9.28636 14.7136 7.07812 12 7.07812C9.28636 7.07812 7.07812 9.28636 7.07812 12C7.07812 14.7136 9.28636 16.9219 12 16.9219Z" fill="#833F1D"/>
</svg>
