<svg width="24" height="24" viewBox="0 0 24 24" fill="none" xmlns="http://www.w3.org/2000/svg">
<path d="M15.0004 17.9992V13.7279C15.0004 12.9007 14.3276 12.2279 13.5004 12.2279H10.5004C9.67314 12.2279 9.00039 12.9007 9.00039 13.7279V17.9992H6.15039V11.3268C6.48264 11.2162 6.78377 11.0343 7.03502 10.7999C7.45877 11.2102 8.03177 11.4674 8.66139 11.4783L8.70039 11.4787C9.34352 11.4787 9.92814 11.2229 10.3598 10.8078C10.7873 11.209 11.3606 11.4565 11.9895 11.4592C12.6379 11.4592 13.2251 11.2042 13.6579 10.7898C14.0873 11.1929 14.6648 11.4404 15.2978 11.4404C15.9443 11.4378 16.53 11.1824 16.9613 10.7695C17.2133 11.0062 17.5163 11.1892 17.8504 11.3005V17.9992H15.0004Z" fill="#833F1D"/>
<path d="M6.70117 4.5H17.2987V5.25H6.70117V4.5Z" fill="#833F1D"/>
<path d="M13.5 13.3535H10.5C10.293 13.3535 10.125 13.1859 10.125 12.9785C10.125 12.7711 10.293 12.6035 10.5 12.6035H13.5C13.707 12.6035 13.875 12.7711 13.875 12.9785C13.875 13.1859 13.707 13.3535 13.5 13.3535Z" fill="#833F1D"/>
<path d="M14.25 19.1255C14.043 19.1255 13.875 18.9579 13.875 18.7505V13.7285C13.875 13.5211 14.043 13.3535 14.25 13.3535C14.457 13.3535 14.625 13.5211 14.625 13.7285V18.7505C14.625 18.9579 14.457 19.1255 14.25 19.1255Z" fill="#833F1D"/>
<path d="M14.25 14.1035C14.043 14.1035 13.875 13.9359 13.875 13.7285C13.875 13.5215 13.7066 13.3535 13.5 13.3535C13.293 13.3535 13.125 13.1859 13.125 12.9785C13.125 12.7711 13.293 12.6035 13.5 12.6035C14.1203 12.6035 14.625 13.1083 14.625 13.7285C14.625 13.9359 14.457 14.1035 14.25 14.1035Z" fill="#833F1D"/>
<path d="M9.75 19.1255C9.543 19.1255 9.375 18.9579 9.375 18.7505V13.7285C9.375 13.5211 9.543 13.3535 9.75 13.3535C9.957 13.3535 10.125 13.5211 10.125 13.7285V18.7505C10.125 18.9579 9.957 19.1255 9.75 19.1255Z" fill="#833F1D"/>
<path d="M9.75 14.1035C9.543 14.1035 9.375 13.9359 9.375 13.7285C9.375 13.1083 9.87975 12.6035 10.5 12.6035C10.707 12.6035 10.875 12.7711 10.875 12.9785C10.875 13.1859 10.707 13.3535 10.5 13.3535C10.2934 13.3535 10.125 13.5215 10.125 13.7285C10.125 13.9359 9.957 14.1035 9.75 14.1035Z" fill="#833F1D"/>
<path d="M18.6016 19.1252C18.3946 19.1252 18.2266 18.9576 18.2266 18.7502V10.6738C18.2266 10.4665 18.3946 10.2988 18.6016 10.2988C18.8086 10.2988 18.9766 10.4665 18.9766 10.6738V18.7502C18.9766 18.9576 18.8086 19.1252 18.6016 19.1252Z" fill="#833F1D"/>
<path d="M5.39844 19.1243C5.19144 19.1243 5.02344 18.9567 5.02344 18.7493V10.6992C5.02344 10.4918 5.19144 10.3242 5.39844 10.3242C5.60544 10.3242 5.77344 10.4918 5.77344 10.6992V18.7493C5.77344 18.9567 5.60544 19.1243 5.39844 19.1243Z" fill="#833F1D"/>
<path d="M20.25 20.625H3.75C3.543 20.625 3.375 20.4574 3.375 20.25V18.75C3.375 18.5426 3.543 18.375 3.75 18.375H20.25C20.457 18.375 20.625 18.5426 20.625 18.75V20.25C20.625 20.4574 20.457 20.625 20.25 20.625ZM4.125 19.875H19.875V19.125H4.125V19.875Z" fill="#833F1D"/>
<path d="M18.0469 4.875C17.8399 4.875 17.6719 4.70737 17.6719 4.5C17.6719 4.293 17.5035 4.125 17.2969 4.125C17.0899 4.125 16.9219 3.95737 16.9219 3.75C16.9219 3.54263 17.0899 3.375 17.2969 3.375C17.9171 3.375 18.4219 3.87975 18.4219 4.5C18.4219 4.70737 18.2542 4.875 18.0469 4.875Z" fill="#833F1D"/>
<path d="M17.2984 4.125H6.70312C6.49612 4.125 6.32812 3.95737 6.32812 3.75C6.32812 3.54263 6.49612 3.375 6.70312 3.375H17.2987C17.5057 3.375 17.6737 3.54263 17.6737 3.75C17.6737 3.95737 17.5057 4.125 17.2984 4.125Z" fill="#833F1D"/>
<path d="M18.0484 6.375H5.95312C5.74612 6.375 5.57812 6.20737 5.57812 6V4.5C5.57812 4.29263 5.74612 4.125 5.95312 4.125C6.16012 4.125 6.32812 4.29263 6.32812 4.5V5.625H17.6737V4.5C17.6737 4.29263 17.8417 4.125 18.0487 4.125C18.2557 4.125 18.4237 4.29263 18.4237 4.5V6C18.4234 6.20737 18.2557 6.375 18.0484 6.375Z" fill="#833F1D"/>
<path d="M5.95313 4.875C5.74613 4.875 5.57812 4.70737 5.57812 4.5C5.57812 3.87975 6.08287 3.375 6.70312 3.375C6.91012 3.375 7.07812 3.54263 7.07812 3.75C7.07812 3.95737 6.91012 4.125 6.70312 4.125C6.4965 4.125 6.32812 4.293 6.32812 4.5C6.32812 4.70737 6.16013 4.875 5.95313 4.875V4.875Z" fill="#833F1D"/>
<path d="M7.04783 9.42605C6.8472 9.42605 6.68108 9.2678 6.6732 9.06567C6.62295 7.77942 7.15208 6.5588 8.12483 5.71655C8.28158 5.5808 8.5182 5.59805 8.65395 5.7548C8.7897 5.91117 8.77245 6.14817 8.61608 6.28355C7.8162 6.97617 7.38158 7.9793 7.42245 9.03642C7.4307 9.24342 7.26945 9.4178 7.06245 9.42567C7.05758 9.42605 7.0527 9.42605 7.04783 9.42605V9.42605Z" fill="#833F1D"/>
<path d="M10.3499 9.42615C10.1481 9.42615 9.98162 9.26565 9.97524 9.06277C9.94149 7.9809 10.096 6.91102 10.4346 5.88315C10.4991 5.68665 10.711 5.57902 10.9082 5.6439C11.1047 5.70877 11.212 5.92065 11.1471 6.11752C10.8359 7.06252 10.6941 8.0454 10.7252 9.03952C10.7316 9.24652 10.5692 9.41977 10.3622 9.42577C10.3577 9.42615 10.3536 9.42615 10.3499 9.42615V9.42615Z" fill="#833F1D"/>
<path d="M13.6498 9.42618C13.6457 9.42618 13.642 9.42618 13.6378 9.42581C13.4308 9.41943 13.2685 9.24618 13.2748 9.03956C13.306 8.04543 13.1638 7.06256 12.853 6.11756C12.7881 5.92106 12.895 5.70881 13.0918 5.64393C13.2891 5.57906 13.5006 5.68631 13.5655 5.88318C13.9041 6.91106 14.0586 7.98131 14.0248 9.06281C14.0181 9.26568 13.8516 9.42618 13.6498 9.42618V9.42618Z" fill="#833F1D"/>
<path d="M16.952 9.42605C16.9471 9.42605 16.9422 9.42605 16.937 9.42567C16.73 9.4178 16.5687 9.24342 16.577 9.03642C16.6182 7.97967 16.1832 6.97617 15.3834 6.28355C15.227 6.14817 15.2097 5.91117 15.3455 5.7548C15.4809 5.59805 15.7175 5.5808 15.8746 5.71655C16.8474 6.5588 17.3765 7.77942 17.3262 9.06567C17.3187 9.26742 17.1522 9.42605 16.952 9.42605V9.42605Z" fill="#833F1D"/>
<path d="M3.75 9.42584C3.543 9.42584 3.375 9.25822 3.375 9.05084C3.375 7.89397 3.957 6.83084 4.93163 6.20722L5.75025 5.68372C5.92463 5.57272 6.15675 5.62372 6.26813 5.79772C6.37988 5.97247 6.32888 6.20422 6.15413 6.31597L5.3355 6.83947C4.57763 7.32397 4.125 8.15084 4.125 9.05084C4.125 9.25784 3.957 9.42584 3.75 9.42584V9.42584Z" fill="#833F1D"/>
<path d="M20.2491 9.4261C20.0421 9.4261 19.8741 9.25847 19.8741 9.0511C19.8741 8.15147 19.4215 7.3246 18.6633 6.83972L17.845 6.31622C17.6706 6.20447 17.6193 5.97272 17.731 5.79797C17.8424 5.6236 18.0745 5.5726 18.2489 5.68397L19.0675 6.20747C20.0425 6.8311 20.6241 7.89422 20.6241 9.0511C20.6241 9.2581 20.4561 9.4261 20.2491 9.4261V9.4261Z" fill="#833F1D"/>
<path d="M18.602 11.0488C17.5178 11.0488 16.5938 10.1435 16.5762 9.05678C16.5728 8.84978 16.7382 8.67916 16.9452 8.67578C17.1541 8.68066 17.3228 8.83778 17.3262 9.04478C17.3371 9.72841 17.9191 10.2984 18.6016 10.2984C18.6083 10.2984 18.6147 10.298 18.6211 10.298C19.3013 10.2872 19.8638 9.72503 19.8747 9.04478C19.8781 8.83703 20.0633 8.67728 20.2557 8.67578C20.4627 8.67916 20.6281 8.84978 20.6247 9.05678C20.6075 10.1375 19.7138 11.0308 18.6331 11.0484C18.6226 11.0484 18.6121 11.0488 18.602 11.0488V11.0488Z" fill="#833F1D"/>
<path d="M15.3004 11.0681C14.7694 11.0681 14.2658 10.8589 13.881 10.4782C13.4936 10.095 13.2784 9.58911 13.2754 9.05399C13.2743 8.84661 13.4411 8.67786 13.6485 8.67674C13.8518 8.66099 14.0243 8.84249 14.0254 9.04949C14.0273 9.38474 14.1634 9.70236 14.4083 9.94499C14.6531 10.1876 14.9756 10.311 15.3075 10.3181C15.9915 10.3144 16.5728 9.73349 16.5765 9.04949C16.5773 8.84249 16.7483 8.66099 16.9534 8.67674C17.1604 8.67786 17.3276 8.84661 17.3265 9.05399C17.3205 10.1584 16.4168 11.0621 15.3116 11.0681C15.3083 11.0681 15.3045 11.0681 15.3004 11.0681V11.0681Z" fill="#833F1D"/>
<path d="M12 11.0852C11.9966 11.0852 11.9929 11.0852 11.9895 11.0852C11.4544 11.0822 10.9485 10.8673 10.5649 10.4799C10.1813 10.0922 9.97164 9.58403 9.97464 9.04891C9.97577 8.84266 10.1434 8.67616 10.3496 8.67616H10.3515C10.5585 8.67728 10.7258 8.84603 10.7246 9.05341C10.7228 9.38828 10.8555 9.70741 11.0978 9.95228C11.3404 10.1975 11.6584 10.3337 11.9933 10.3352C12.3266 10.343 12.6484 10.2039 12.8921 9.96128C13.1393 9.71566 13.2754 9.39203 13.2754 9.05078C13.2754 8.84341 13.4434 8.67578 13.6504 8.67578C13.8574 8.67578 14.0254 8.84341 14.0254 9.05078C14.0254 9.59303 13.8109 10.1057 13.4213 10.493C13.0373 10.8752 12.5325 11.0852 12 11.0852Z" fill="#833F1D"/>
<path d="M8.69945 11.1033C8.68858 11.1033 8.67808 11.103 8.6672 11.103C7.5692 11.085 6.65645 10.1426 6.67408 9.04533C6.67745 8.83758 6.85745 8.67783 7.05508 8.67633C7.26208 8.6797 7.42745 8.85033 7.42408 9.05733C7.41283 9.74883 7.9877 10.3421 8.6792 10.3533C9.02083 10.3593 9.34445 10.2258 9.59195 9.97983C9.84283 9.73045 9.97895 9.40195 9.9752 9.05545C9.97295 8.84808 10.1395 8.67858 10.3465 8.67633C10.561 8.6647 10.723 8.84058 10.7252 9.0472C10.7308 9.58983 10.5103 10.1235 10.1207 10.5112C9.73633 10.8937 9.2327 11.1033 8.69945 11.1033V11.1033Z" fill="#833F1D"/>
<path d="M5.39925 11.0747C4.302 11.0747 3.375 10.148 3.375 9.05078C3.375 8.84341 3.543 8.67578 3.75 8.67578C3.957 8.67578 4.125 8.84341 4.125 9.05078C4.125 9.74153 4.7085 10.3247 5.39925 10.3247C6.09 10.3247 6.67312 9.74116 6.67312 9.05078C6.67312 8.84341 6.84112 8.67578 7.04812 8.67578C7.25512 8.67578 7.42312 8.84341 7.42312 9.05078C7.42312 10.148 6.4965 11.0747 5.39925 11.0747V11.0747Z" fill="#833F1D"/>
</svg>
